<?xml version="1.0" encoding="UTF-8" standalone="no"?>
<!-- Created with Inkscape (http://www.inkscape.org/) -->

<svg
   xmlns:dc="http://purl.org/dc/elements/1.1/"
   xmlns:cc="http://creativecommons.org/ns#"
   xmlns:rdf="http://www.w3.org/1999/02/22-rdf-syntax-ns#"
   xmlns:svg="http://www.w3.org/2000/svg"
   xmlns="http://www.w3.org/2000/svg"
   xmlns:sodipodi="http://sodipodi.sourceforge.net/DTD/sodipodi-0.dtd"
   xmlns:inkscape="http://www.inkscape.org/namespaces/inkscape"
   width="250"
   height="280"
   id="svg2"
   version="1.1"
   inkscape:version="0.48.1 r9760"
   sodipodi:docname="Documento nuevo 1">
  <defs
     id="defs4" />
  <sodipodi:namedview
     id="base"
     pagecolor="#ffffff"
     bordercolor="#666666"
     borderopacity="1.0"
     inkscape:pageopacity="0.0"
     inkscape:pageshadow="2"
     inkscape:zoom="1.8285714"
     inkscape:cx="125"
     inkscape:cy="140"
     inkscape:document-units="px"
     inkscape:current-layer="layer1"
     showgrid="false"
     showguides="true"
     inkscape:guide-bbox="true"
     inkscape:window-width="1366"
     inkscape:window-height="710"
     inkscape:window-x="0"
     inkscape:window-y="26"
     inkscape:window-maximized="1" />
  <metadata
     id="metadata7">
    <rdf:RDF>
      <cc:Work
         rdf:about="">
        <dc:format>image/svg+xml</dc:format>
        <dc:type
           rdf:resource="http://purl.org/dc/dcmitype/StillImage" />
        <dc:title></dc:title>
      </cc:Work>
    </rdf:RDF>
  </metadata>
  <g
     inkscape:label="Capa 1"
     inkscape:groupmode="layer"
     id="layer1"
     transform="translate(0,-772.36218)">
    <g
       id="g3948"
       transform="translate(-80.156271,504.60567)">
      <path
         sodipodi:nodetypes="cccccc"
         inkscape:connector-curvature="0"
         id="path2996-5"
         d="m 112.8156,432.953 c -0.66608,-35.46164 -1.53359,-70.92204 -2.07331,-106.38445 -6.60433,-27.77733 33.17172,-14.02025 90.16149,-17.36969 59.73173,3.56394 90.07037,-7.78641 87.70591,14.82602 1.18806,18.50945 0.5411,77.0122 0.16599,109.45181 -57.78055,0.52369 -118.17953,-1.04738 -175.96008,-0.52369 z"
         style="fill:#58b522;fill-opacity:1;stroke:#000000;stroke-width:1px;stroke-linecap:butt;stroke-linejoin:miter;stroke-opacity:1" />
      <path
         sodipodi:nodetypes="cccccc"
         inkscape:connector-curvature="0"
         id="path2996"
         d="m 112.59352,441.73874 c -0.66608,-35.46164 -1.53359,-70.92204 -2.07331,-106.38445 -6.60433,-27.77733 33.17172,-14.02025 90.16149,-17.36969 59.73174,3.56394 90.07038,-7.78641 87.70592,14.82602 1.18806,18.50945 0.5411,77.0122 0.16599,109.45181 -57.78055,0.52369 -118.17954,-1.04738 -175.96009,-0.52369 z"
         style="fill:#ffffff;fill-opacity:1;stroke:#000000;stroke-width:1px;stroke-linecap:butt;stroke-linejoin:miter;stroke-opacity:1" />
      <path
         inkscape:connector-curvature="0"
         id="path3836"
         d="m 98.959145,271.77245 c 2.506965,0 5.013935,0 7.520895,0 1.31946,21.63906 2.63891,43.27813 3.95837,64.91719 -3.38388,-1.23843 -5.83159,-3.97616 -7.25998,-7.04717 -1.40068,-2.70818 -1.98243,-5.86104 -2.29817,-9.07357 -0.64037,-16.26548 -1.280742,-32.53097 -1.921115,-48.79645 z"
         style="fill:#58b522;fill-opacity:1;stroke:#000000;stroke-width:1px;stroke-linecap:butt;stroke-linejoin:miter;stroke-opacity:1" />
      <path
         inkscape:connector-curvature="0"
         id="path3836-3"
         d="m 297.21022,269.56805 c -2.50269,0.14622 -5.0054,0.29244 -7.50809,0.43866 -0.0551,21.67918 -0.11019,43.35837 -0.16529,65.03755 3.30589,-1.43369 5.58975,-4.30952 6.83659,-7.45862 1.24034,-2.78526 1.63721,-5.96668 1.76504,-9.19216 -0.30942,-16.27514 -0.61884,-32.55029 -0.92825,-48.82543 z"
         style="fill:#58b522;fill-opacity:1;stroke:#000000;stroke-width:1px;stroke-linecap:butt;stroke-linejoin:miter;stroke-opacity:1" />
      <rect
         ry="1.1758869"
         rx="4.4972029"
         y="334.89426"
         x="130.49185"
         height="90.158005"
         width="139.50764"
         id="rect3858"
         style="fill:#bdbdbd;fill-opacity:1;stroke:#2f0000;stroke-width:0.30000001;stroke-linecap:round;stroke-linejoin:round;stroke-miterlimit:4;stroke-opacity:1;stroke-dasharray:none" />
      <path
         sodipodi:nodetypes="ccccccccccc"
         inkscape:connector-curvature="0"
         id="path3877-5"
         d="m 111.11137,442.92675 c -1.06893,6.55323 -6.51526,13.21747 -2.11321,17.83413 -3.50432,13.10207 -8.46385,26.0538 -12.629934,39.08841 -2.012229,6.02225 -4.024458,12.0445 -6.036691,18.06675 2.906717,6.21416 -6.400627,23.31295 15.079725,21.70617 42.67669,-0.10952 215.69783,-0.79785 212.71824,-4.51574 5.28792,-3.79461 2.45896,-6.86652 1.40731,-11.74146 13.63435,-1.695 -18.35034,-48.26848 -23.49342,-64.58797 3.97191,-1.4776 4.07562,-10.16252 -4.29113,-15.71876 -30.46906,-0.27617 -74.71208,-0.27986 -105.19787,-0.3464 -26.08686,0 -49.35619,0.21484 -75.44302,0.21487 z"
         style="fill:#58b522;fill-opacity:1;stroke:#000000;stroke-width:0.78525257px;stroke-linecap:butt;stroke-linejoin:miter;stroke-opacity:1" />
      <path
         sodipodi:nodetypes="ccccccccccccc"
         inkscape:connector-curvature="0"
         id="path3877"
         d="m 115.98711,442.9117 c -1.06893,6.55323 -3.69765,10.85391 0.7044,15.47057 -3.50432,13.10206 -8.46384,26.05379 -12.62993,39.0884 -2.01223,6.02226 -4.02446,12.04451 -6.036694,18.06676 3.673654,5.87783 1.425061,3.24296 0.991703,14.18575 3.331321,4.42731 12.486381,3.19685 19.003311,3.84837 63.77599,-0.79406 127.55004,-1.71906 191.32529,-2.56356 7.02975,-4.67937 1.4261,-11.92835 -1.13236,-17.18862 5.28792,-3.7946 -1.06305,-9.0152 -2.1147,-13.89015 -5.98034,-13.71793 -12.00611,-27.42865 -17.85821,-41.16724 2.67441,-5.43546 5.33352,-11.69719 -2.53012,-15.71876 -30.46907,-0.27617 -60.97627,-0.065 -91.46207,-0.13154 -26.08686,1e-5 -52.17378,-10e-6 -78.26062,2e-5 z"
         style="fill:#ffffff;fill-opacity:1;stroke:#000000;stroke-width:0.78525257px;stroke-linecap:butt;stroke-linejoin:miter;stroke-opacity:1" />
      <path
         inkscape:connector-curvature="0"
         id="path3899"
         d="m 118.10031,464.3986 168.35185,-1.50408 16.20122,34.16417 -195.11908,1.71895 z"
         style="fill:#58b522;fill-opacity:1;stroke:#000000;stroke-width:0.78525257px;stroke-linecap:butt;stroke-linejoin:miter;stroke-opacity:1" />
      <path
         inkscape:connector-curvature="0"
         id="path3836-3-0"
         d="m 297.57941,377.15638 c -2.50386,0.12455 -5.00774,0.2491 -7.5116,0.37366 -0.24274,21.67789 -0.48547,43.35579 -0.72821,65.03368 3.31818,-1.40502 5.62684,-4.26098 6.90089,-7.39917 1.2644,-2.77442 1.68879,-5.95228 1.84454,-9.17654 -0.16854,-16.27721 -0.33708,-32.55442 -0.50562,-48.83163 z"
         style="fill:#58b522;fill-opacity:1;stroke:#000000;stroke-width:1px;stroke-linecap:butt;stroke-linejoin:miter;stroke-opacity:1" />
      <path
         inkscape:connector-curvature="0"
         id="path3836-3-0-3"
         d="m 103.68303,375.75909 c 2.50386,0.12455 5.00774,0.2491 7.5116,0.37366 0.24274,21.67789 0.48547,43.35579 0.72821,65.03368 -3.31818,-1.40502 -5.62684,-4.26098 -6.90089,-7.39917 -1.2644,-2.77442 -1.68879,-5.95228 -1.84454,-9.17654 0.16854,-16.27721 0.33708,-32.55442 0.50562,-48.83163 z"
         style="fill:#58b522;fill-opacity:1;stroke:#000000;stroke-width:1px;stroke-linecap:butt;stroke-linejoin:miter;stroke-opacity:1" />
    </g>
  </g>
</svg>
