<?xml version="1.0" encoding="UTF-8" standalone="no"?>
<!-- Created with Inkscape (http://www.inkscape.org/) -->

<svg
   xmlns:dc="http://purl.org/dc/elements/1.1/"
   xmlns:cc="http://creativecommons.org/ns#"
   xmlns:rdf="http://www.w3.org/1999/02/22-rdf-syntax-ns#"
   xmlns:svg="http://www.w3.org/2000/svg"
   xmlns="http://www.w3.org/2000/svg"
   version="1.1"
   width="365.19299"
   height="356.44772"
   id="svg2">
  <title
     id="title4033">Dining table</title>
  <defs
     id="defs4">
    <filter
       x="-0.00602814"
       y="-1.2853113"
       width="1.0120564"
       height="3.5706227"
       color-interpolation-filters="sRGB"
       id="filter3919">
      <feGaussianBlur
         id="feGaussianBlur3921"
         stdDeviation="0.90633735" />
    </filter>
    <filter
       x="-0.0060926909"
       y="-0.39438713"
       width="1.0121855"
       height="1.7887743"
       color-interpolation-filters="sRGB"
       id="filter3933">
      <feGaussianBlur
         id="feGaussianBlur3935"
         stdDeviation="0.38549602" />
    </filter>
  </defs>
  <metadata
     id="metadata7">
    <rdf:RDF>
      <cc:Work
         rdf:about="">
        <dc:format>image/svg+xml</dc:format>
        <dc:type
           rdf:resource="http://purl.org/dc/dcmitype/StillImage" />
        <dc:title>Dining table</dc:title>
        <dc:date>17.02.2012</dc:date>
        <dc:creator>
          <cc:Agent>
            <dc:title>Ozer Kavak</dc:title>
          </cc:Agent>
        </dc:creator>
        <dc:publisher>
          <cc:Agent>
            <dc:title>http://www.nestingo.com</dc:title>
          </cc:Agent>
        </dc:publisher>
        <dc:source>http://www.nestingo.com/masa-sandalye/masalar/14-mutfak-masasi-efes7070.html</dc:source>
        <dc:subject>
          <rdf:Bag>
            <rdf:li>wood</rdf:li>
            <rdf:li>dining</rdf:li>
            <rdf:li>table</rdf:li>
          </rdf:Bag>
        </dc:subject>
        <dc:description>Based on wooden dining table NestinGo - Efes7070 at: http://www.nestingo.com/masa-sandalye/masalar/14-mutfak-masasi-efes7070.html</dc:description>
        <dc:contributor>
          <cc:Agent>
            <dc:title>Ozer Kavak</dc:title>
          </cc:Agent>
        </dc:contributor>
      </cc:Work>
    </rdf:RDF>
  </metadata>
  <g
     transform="translate(-8.4314067,-682.84287)"
     id="layer1">
    <path
       d="m 266.93607,1029.367 -0.27679,4.143 c -0.0831,1.2444 -0.73616,2.0726 -1.98332,2.0726 l -147.36316,0 c -1.24716,0 -1.91591,-0.9612 -1.98332,-2.2065 l -0.20978,-3.8752 c 2.75643,0.3347 148.50327,-0.4083 151.81641,-0.1339 z"
       id="path3895"
       style="fill:#000000;fill-opacity:1;stroke:none" />
    <path
       d="m 150.12559,971.06183 81.90157,-0.0323 c 1.24716,-4.9e-4 3.48716,1.27199 3.48716,1.27199 l 31.44634,57.51468 c 0.47127,0.8619 -1.00402,1.7664 -2.25118,1.7664 l -147.36316,0 c -1.24716,0 -2.72377,-0.9052 -2.25118,-1.7664 l 31.54329,-57.48236 c 0.47259,-0.86123 2.24,-1.2715 3.48716,-1.27199 z"
       id="rect3892"
       style="fill:#4d4d4d;fill-opacity:1;stroke:none" />
    <path
       d="m 266.95416,1029.367 c -0.007,0.4056 -0.16782,1.7977 -1.37623,2.175 l -148.81525,0 c -1.22062,-0.5054 -1.71465,-1.29 -1.65646,-2.3252 2.9774,0.019 148.50327,-0.1242 151.81641,0.1502 z"
       id="path3931"
       style="fill:#808080;fill-opacity:1;stroke:none;filter:url(#filter3933)" />
    <rect
       width="31.470152"
       height="230.70157"
       rx="2.5253813"
       ry="3.855947"
       x="175.29283"
       y="771.20813"
       id="rect3890"
       style="fill:#1a1a1a;fill-opacity:1;stroke:none" />
    <path
       d="m 85.022903,682.84299 215.560087,0.73753 c 20.86248,22.96718 44.66727,49.15031 70.44491,74.97675 l -359.999995,0 c 23.493101,-23.03712 53.539404,-53.83488 73.994998,-75.71428 z"
       id="rect3117"
       style="fill:#ad751d;fill-opacity:1;stroke:none" />
    <path
       d="m 10.966865,777.55727 359.999995,0 c 0.284,-0.21068 0.55237,-0.48385 0.52387,-1.00703 l -0.0328,-16.74297 -0.58577,-1.36049 -359.771365,-0.0234 -0.53572,1.51786 0.0216,16.60685 c -0.0139,0.38327 0.11284,0.89154 0.38019,1.00918 z"
       id="path3888"
       style="fill:#975e30;fill-opacity:1;stroke:none" />
    <path
       d="m 10.734915,760.01479 359.939105,0.11735 0.65014,-0.18628 0.12503,-0.26486 -0.5542,-1.23422 -359.849495,-0.007 -0.36289,0.77507 c -0.18907,0.29674 0.0317,0.54177 0.0523,0.7996 z"
       id="path3917"
       style="fill:#ffccaa;fill-opacity:1;stroke:none;filter:url(#filter3919)" />
  </g>
</svg>
