<?xml version="1.0" encoding="UTF-8" standalone="no"?>
<!-- Created with Inkscape (http://www.inkscape.org/) -->

<svg
   xmlns:dc="http://purl.org/dc/elements/1.1/"
   xmlns:cc="http://creativecommons.org/ns#"
   xmlns:rdf="http://www.w3.org/1999/02/22-rdf-syntax-ns#"
   xmlns:svg="http://www.w3.org/2000/svg"
   xmlns="http://www.w3.org/2000/svg"
   xmlns:xlink="http://www.w3.org/1999/xlink"
   version="1.0"
   width="369.06384"
   height="441"
   id="svg2">
  <defs
     id="defs4" />
  <metadata
     id="metadata7">
    <rdf:RDF>
      <cc:Work
         rdf:about="">
        <dc:format>image/svg+xml</dc:format>
        <dc:type
           rdf:resource="http://purl.org/dc/dcmitype/StillImage" />
        <dc:title></dc:title>
      </cc:Work>
    </rdf:RDF>
  </metadata>
  <g
     transform="translate(-188.56123,-282.17911)"
     id="layer1">
    <g
       transform="translate(-40.059234,2.6186102)"
       id="g4301">
      <path
         d="m 282.8427,336.74923 c -4.25684,162.49487 -0.048,247.10545 -7.07106,376.23643 6.73435,6.07972 11.44839,3.94288 18.18274,2.40612 l 20.20306,-63.53813 c 66.90591,-22.22055 114.8676,-20.71025 184.83723,-5.23488 l 14.16282,70.72826 c 4.30152,0.41297 16.55963,0.73048 25.20936,-2.64037 l 1.0546,-378.15272 14.14214,-3.47814 0,-5.05076 -67.82657,-45.50062 -153.83232,0.29651 -59.16352,45.32479 0.65904,5.48864 z"
         id="path2170"
         style="fill:#b3722e;fill-opacity:1;fill-rule:evenodd;stroke:#63350d;stroke-width:1px;stroke-linecap:butt;stroke-linejoin:miter;stroke-opacity:1" />
      <path
         d="m 419.12322,576.13125 c 0,3.90323 -4.07293,6.90907 -9.09137,6.70947 -5.01844,-0.19959 -9.09137,-3.52941 -9.09137,-7.43264 0,-3.90323 4.07293,-6.90908 9.09137,-6.70949 5.01844,0.1996 9.09137,3.52943 9.09137,7.43266 z"
         id="path2178"
         style="fill:#864c26;fill-opacity:1;fill-rule:nonzero;stroke:none" />
      <use
         transform="translate(0,-90.774884)"
         id="use2181"
         x="0"
         y="0"
         width="744.09448"
         height="1052.3622"
         xlink:href="#path2178" />
      <use
         transform="translate(0,-185.6087)"
         id="use2183"
         x="0"
         y="0"
         width="744.09448"
         height="1052.3622"
         xlink:href="#path2178" />
      <path
         d="m 300.0153,618.9663 210.74863,-2.53669"
         id="path2187"
         style="fill:none;stroke:#000000;stroke-width:1px;stroke-linecap:butt;stroke-linejoin:miter;stroke-opacity:1" />
      <path
         d="m 283.07428,336.96665 256.38046,-0.37544 m -256.4672,0.79992 -4.18544,320.12743 -3.03046,52.4074 m 56.17193,-426.83276 -58.82662,44.79702 280.23812,0.0337 M 298.05626,619.7742 300.04182,348.35135 m 0.20808,-0.0966 214.29099,-0.23235 -3.12394,268.40722"
         id="path2174"
         style="fill:none;stroke:#63350d;stroke-width:1px;stroke-linecap:butt;stroke-linejoin:miter;stroke-opacity:1" />
      <path
         d="m 513.87755,442.08752 -214.53491,-0.45207 0.10465,-12.21707 214.17523,0.013 z"
         id="path2195"
         style="fill:#c28856;fill-opacity:1;fill-rule:evenodd;stroke:#63350d;stroke-width:1px;stroke-linecap:butt;stroke-linejoin:miter;stroke-opacity:1" />
      <use
         transform="translate(-0.7142857,94.92593)"
         id="use3173"
         style="stroke:#63350d;stroke-opacity:1"
         x="0"
         y="0"
         width="744.09448"
         height="1052.3622"
         xlink:href="#path2195" />
      <path
         d="m 510.78624,658.12089 c -63.66995,-24.45504 -148.33963,-24.15103 -212.76249,-0.0153 l 0.10465,-41.67601 212.87043,0 z"
         id="path3175"
         style="fill:#c28856;fill-opacity:1;fill-rule:evenodd;stroke:#63350d;stroke-width:1px;stroke-linecap:butt;stroke-linejoin:miter;stroke-opacity:1" />
    </g>
  </g>
</svg>
