<?xml version="1.0" encoding="UTF-8" standalone="no"?>
<!-- Created with Inkscape (http://www.inkscape.org/) -->

<svg
   xmlns:dc="http://purl.org/dc/elements/1.1/"
   xmlns:cc="http://creativecommons.org/ns#"
   xmlns:rdf="http://www.w3.org/1999/02/22-rdf-syntax-ns#"
   xmlns:svg="http://www.w3.org/2000/svg"
   xmlns="http://www.w3.org/2000/svg"
   version="1.0"
   width="345.47217"
   height="446.48743"
   id="svg2">
  <defs
     id="defs4" />
  <metadata
     id="metadata7">
    <rdf:RDF>
      <cc:Work
         rdf:about="">
        <dc:format>image/svg+xml</dc:format>
        <dc:type
           rdf:resource="http://purl.org/dc/dcmitype/StillImage" />
        <dc:title></dc:title>
      </cc:Work>
    </rdf:RDF>
  </metadata>
  <g
     transform="translate(-129.29953,-523.04225)"
     id="layer1">
    <g
       transform="matrix(0.99621502,0,0,0.92818447,1.7713803,68.81189)"
       id="g3659">
      <path
         d="m 383.2628,638.56826 2.89094,288.23038 32.48783,0.51215 1.23985,-289.64607 z"
         id="path3278"
         style="fill:#6f4431;fill-opacity:1;fill-rule:evenodd;stroke:none" />
      <path
         d="m 190.13036,644.77444 2.89095,275.45235 32.48782,-0.006 1.23986,-276.35005 z"
         id="path3276"
         style="fill:#6f4431;fill-opacity:1;fill-rule:evenodd;stroke:none" />
      <path
         d="m 201.88204,826.88977 201.43408,0.48449 1.51608,22.64811 -203.90997,0 z"
         id="path3274"
         style="fill:#5d4332;fill-opacity:1;fill-rule:evenodd;stroke:#411c0c;stroke-width:1.29503167px;stroke-linecap:butt;stroke-linejoin:miter;stroke-opacity:1" />
      <path
         d="m 199.76685,573.26608 200.43883,-0.90353 0.96364,66.48794 -203.28135,-1.43283 1.87888,-64.15158 z"
         id="path3268"
         style="fill:#572d1d;fill-opacity:1;fill-rule:evenodd;stroke:none" />
      <path
         d="m 168.93011,572.36254 0.96364,384.00596 34.97378,-0.006 0.6812,-384.90366 z"
         id="path3266"
         style="fill:#653a27;fill-opacity:1;fill-rule:evenodd;stroke:none" />
      <path
         d="m 308.8995,608.14515 c 0,4.65505 -5.18057,8.43306 -11.56378,8.43306 -6.38321,0 -11.56377,-3.77801 -11.56377,-8.43306 0,-4.65506 5.18056,-8.43308 11.56377,-8.43308 6.38321,0 11.56378,3.77802 11.56378,8.43308 z"
         id="use2183"
         style="fill:#864c26;fill-opacity:1;fill-rule:nonzero;stroke:none" />
      <path
         d="m 398.27839,573.26609 1.92729,384.9095 33.87216,-0.277 0.81917,-382.82542 z"
         id="path3270"
         style="fill:#653a27;fill-opacity:1;fill-rule:evenodd;stroke:none" />
      <path
         d="m 137.12972,562.42356 -0.39063,17.75307 329.95832,-0.39049 0.0258,-18.43713 z"
         id="path2294"
         style="fill:#583723;fill-opacity:1;fill-rule:evenodd;stroke:#2f0000;stroke-width:0.92373377;stroke-opacity:1" />
      <path
         d="m 399.42355,637.81904 0.40012,15.08879 -196.5306,-0.2138 0.62044,-14.94564 z"
         id="path3282"
         style="fill:#61392d;fill-opacity:1;fill-rule:evenodd;stroke:#411c0c;stroke-width:0.92373377px;stroke-linecap:butt;stroke-linejoin:miter;stroke-opacity:1" />
      <path
         d="m 188.93689,505.00047 -51.56307,57.47572 329.95832,-0.82286 -48.02155,-57.37356 z"
         id="path2294-8"
         style="fill:#583723;fill-opacity:1;fill-rule:evenodd;stroke:#2f0000;stroke-width:1.34090805;stroke-opacity:1" />
    </g>
  </g>
</svg>
