<?xml version="1.0" encoding="UTF-8" standalone="no"?>
<!-- Created with Inkscape (http://www.inkscape.org/) -->

<svg
   xmlns:dc="http://purl.org/dc/elements/1.1/"
   xmlns:cc="http://creativecommons.org/ns#"
   xmlns:rdf="http://www.w3.org/1999/02/22-rdf-syntax-ns#"
   xmlns:svg="http://www.w3.org/2000/svg"
   xmlns="http://www.w3.org/2000/svg"
   xmlns:xlink="http://www.w3.org/1999/xlink"
   version="1.0"
   width="334.09354"
   height="521.08215"
   id="svg2">
  <metadata
     id="metadata87">
    <rdf:RDF>
      <cc:Work
         rdf:about="">
        <dc:format>image/svg+xml</dc:format>
        <dc:type
           rdf:resource="http://purl.org/dc/dcmitype/StillImage" />
        <dc:title></dc:title>
      </cc:Work>
    </rdf:RDF>
  </metadata>
  <defs
     id="defs4">
    <linearGradient
       id="linearGradient22071">
      <stop
         id="stop22073"
         style="stop-color:#86867c;stop-opacity:1"
         offset="0" />
      <stop
         id="stop22075"
         style="stop-color:#b6aea8;stop-opacity:1"
         offset="1" />
    </linearGradient>
    <linearGradient
       id="linearGradient21172">
      <stop
         id="stop21174"
         style="stop-color:#bbbbb3;stop-opacity:1"
         offset="0" />
      <stop
         id="stop21176"
         style="stop-color:#dde2d8;stop-opacity:1"
         offset="1" />
    </linearGradient>
    <linearGradient
       id="linearGradient4511">
      <stop
         id="stop4513"
         style="stop-color:#cdd0cd;stop-opacity:1"
         offset="0" />
      <stop
         id="stop4515"
         style="stop-color:#ffffff;stop-opacity:1"
         offset="1" />
    </linearGradient>
    <linearGradient
       x1="313.78574"
       y1="259.50504"
       x2="363.35715"
       y2="239.50504"
       id="linearGradient4517"
       xlink:href="#linearGradient4511"
       gradientUnits="userSpaceOnUse" />
    <linearGradient
       x1="336.64285"
       y1="340.93359"
       x2="395.71429"
       y2="309.505"
       id="linearGradient6273"
       xlink:href="#linearGradient4511"
       gradientUnits="userSpaceOnUse" />
    <linearGradient
       x1="390.95264"
       y1="781.185"
       x2="379.8815"
       y2="821.13818"
       id="linearGradient16796"
       xlink:href="#linearGradient4511"
       gradientUnits="userSpaceOnUse"
       gradientTransform="matrix(1.005937,0,0,1,-4.017598,0)" />
    <linearGradient
       x1="459.52634"
       y1="917.3114"
       x2="624.88544"
       y2="943.7016"
       id="linearGradient21178"
       xlink:href="#linearGradient21172"
       gradientUnits="userSpaceOnUse"
       spreadMethod="reflect" />
    <linearGradient
       x1="580.76904"
       y1="845.57513"
       x2="723.41833"
       y2="882.38538"
       id="linearGradient22077"
       xlink:href="#linearGradient22071"
       gradientUnits="userSpaceOnUse"
       spreadMethod="reflect" />
    <linearGradient
       x1="477.25916"
       y1="806.07935"
       x2="463.0274"
       y2="672.78888"
       id="linearGradient26458"
       xlink:href="#linearGradient21172"
       gradientUnits="userSpaceOnUse" />
    <linearGradient
       x1="267.88959"
       y1="581.33203"
       x2="435.35544"
       y2="581.33203"
       id="linearGradient27344"
       xlink:href="#linearGradient4511"
       gradientUnits="userSpaceOnUse"
       gradientTransform="matrix(1,0,0,0.959566,0,18.91242)" />
    <linearGradient
       x1="791.17993"
       y1="1769.6221"
       x2="806.98022"
       y2="1747.3987"
       id="linearGradient28226"
       xlink:href="#linearGradient4511"
       gradientUnits="userSpaceOnUse"
       spreadMethod="reflect" />
    <linearGradient
       x1="791.17993"
       y1="1769.6221"
       x2="806.98022"
       y2="1747.3987"
       id="linearGradient30856"
       xlink:href="#linearGradient4511"
       gradientUnits="userSpaceOnUse"
       gradientTransform="matrix(0.954369,0,0,1,-1002.698,-1599.127)"
       spreadMethod="reflect" />
    <linearGradient
       x1="791.17993"
       y1="1769.6221"
       x2="806.98022"
       y2="1747.3987"
       id="linearGradient30860"
       xlink:href="#linearGradient4511"
       gradientUnits="userSpaceOnUse"
       gradientTransform="matrix(0.593028,0,0,0.533431,-73.44042,-192.4064)"
       spreadMethod="reflect" />
    <linearGradient
       x1="791.17993"
       y1="1769.6221"
       x2="806.98022"
       y2="1747.3987"
       id="linearGradient31737"
       xlink:href="#linearGradient4511"
       gradientUnits="userSpaceOnUse"
       gradientTransform="matrix(0.593028,0,0,0.533431,-79.75629,-188.9785)"
       spreadMethod="reflect" />
    <linearGradient
       x1="580.76904"
       y1="845.57513"
       x2="723.41833"
       y2="882.38538"
       id="linearGradient36226"
       xlink:href="#linearGradient22071"
       gradientUnits="userSpaceOnUse"
       spreadMethod="reflect" />
    <linearGradient
       x1="459.52634"
       y1="917.3114"
       x2="624.88544"
       y2="943.7016"
       id="linearGradient36228"
       xlink:href="#linearGradient21172"
       gradientUnits="userSpaceOnUse"
       spreadMethod="reflect" />
    <linearGradient
       x1="267.88959"
       y1="581.33203"
       x2="435.35544"
       y2="581.33203"
       id="linearGradient36230"
       xlink:href="#linearGradient4511"
       gradientUnits="userSpaceOnUse"
       gradientTransform="matrix(1,0,0,0.959566,0,18.91242)" />
    <linearGradient
       x1="791.17993"
       y1="1769.6221"
       x2="806.98022"
       y2="1747.3987"
       id="linearGradient36232"
       xlink:href="#linearGradient4511"
       gradientUnits="userSpaceOnUse"
       spreadMethod="reflect" />
    <linearGradient
       x1="791.17993"
       y1="1769.6221"
       x2="806.98022"
       y2="1747.3987"
       id="linearGradient36234"
       xlink:href="#linearGradient4511"
       gradientUnits="userSpaceOnUse"
       spreadMethod="reflect" />
    <linearGradient
       x1="791.17993"
       y1="1769.6221"
       x2="806.98022"
       y2="1747.3987"
       id="linearGradient36236"
       xlink:href="#linearGradient4511"
       gradientUnits="userSpaceOnUse"
       spreadMethod="reflect" />
    <linearGradient
       x1="313.78574"
       y1="259.50504"
       x2="363.35715"
       y2="239.50504"
       id="linearGradient36238"
       xlink:href="#linearGradient4511"
       gradientUnits="userSpaceOnUse" />
    <linearGradient
       x1="336.64285"
       y1="340.93359"
       x2="395.71429"
       y2="309.505"
       id="linearGradient36240"
       xlink:href="#linearGradient4511"
       gradientUnits="userSpaceOnUse" />
    <linearGradient
       x1="390.95264"
       y1="781.185"
       x2="379.8815"
       y2="821.13818"
       id="linearGradient36242"
       xlink:href="#linearGradient4511"
       gradientUnits="userSpaceOnUse"
       gradientTransform="matrix(1.005937,0,0,1,-4.017598,0)" />
    <linearGradient
       x1="477.25916"
       y1="806.07935"
       x2="463.0274"
       y2="672.78888"
       id="linearGradient36244"
       xlink:href="#linearGradient21172"
       gradientUnits="userSpaceOnUse" />
    <linearGradient
       x1="791.17993"
       y1="1769.6221"
       x2="806.98022"
       y2="1747.3987"
       id="linearGradient36246"
       xlink:href="#linearGradient4511"
       gradientUnits="userSpaceOnUse"
       gradientTransform="matrix(0.593028,0,0,0.533431,-73.44042,-192.4064)"
       spreadMethod="reflect" />
    <linearGradient
       x1="791.17993"
       y1="1769.6221"
       x2="806.98022"
       y2="1747.3987"
       id="linearGradient36248"
       xlink:href="#linearGradient4511"
       gradientUnits="userSpaceOnUse"
       gradientTransform="matrix(0.593028,0,0,0.533431,-79.75629,-188.9785)"
       spreadMethod="reflect" />
    <linearGradient
       x1="580.76904"
       y1="845.57513"
       x2="723.41833"
       y2="882.38538"
       id="linearGradient3110"
       xlink:href="#linearGradient22071"
       gradientUnits="userSpaceOnUse"
       spreadMethod="reflect" />
    <linearGradient
       x1="459.52634"
       y1="917.3114"
       x2="624.88544"
       y2="943.7016"
       id="linearGradient3112"
       xlink:href="#linearGradient21172"
       gradientUnits="userSpaceOnUse"
       spreadMethod="reflect" />
    <linearGradient
       x1="267.88959"
       y1="581.33203"
       x2="435.35544"
       y2="581.33203"
       id="linearGradient3114"
       xlink:href="#linearGradient4511"
       gradientUnits="userSpaceOnUse"
       gradientTransform="matrix(1,0,0,0.959566,0,18.91242)" />
    <linearGradient
       x1="791.17993"
       y1="1769.6221"
       x2="806.98022"
       y2="1747.3987"
       id="linearGradient3116"
       xlink:href="#linearGradient4511"
       gradientUnits="userSpaceOnUse"
       spreadMethod="reflect" />
    <linearGradient
       x1="791.17993"
       y1="1769.6221"
       x2="806.98022"
       y2="1747.3987"
       id="linearGradient3118"
       xlink:href="#linearGradient4511"
       gradientUnits="userSpaceOnUse"
       spreadMethod="reflect" />
    <linearGradient
       x1="791.17993"
       y1="1769.6221"
       x2="806.98022"
       y2="1747.3987"
       id="linearGradient3120"
       xlink:href="#linearGradient4511"
       gradientUnits="userSpaceOnUse"
       spreadMethod="reflect" />
    <linearGradient
       x1="313.78574"
       y1="259.50504"
       x2="363.35715"
       y2="239.50504"
       id="linearGradient3122"
       xlink:href="#linearGradient4511"
       gradientUnits="userSpaceOnUse" />
    <linearGradient
       x1="336.64285"
       y1="340.93359"
       x2="395.71429"
       y2="309.505"
       id="linearGradient3124"
       xlink:href="#linearGradient4511"
       gradientUnits="userSpaceOnUse" />
    <linearGradient
       x1="390.95264"
       y1="781.185"
       x2="379.8815"
       y2="821.13818"
       id="linearGradient3126"
       xlink:href="#linearGradient4511"
       gradientUnits="userSpaceOnUse"
       gradientTransform="matrix(1.005937,0,0,1,-4.017598,0)" />
    <linearGradient
       x1="477.25916"
       y1="806.07935"
       x2="463.0274"
       y2="672.78888"
       id="linearGradient3128"
       xlink:href="#linearGradient21172"
       gradientUnits="userSpaceOnUse" />
    <linearGradient
       x1="791.17993"
       y1="1769.6221"
       x2="806.98022"
       y2="1747.3987"
       id="linearGradient3130"
       xlink:href="#linearGradient4511"
       gradientUnits="userSpaceOnUse"
       gradientTransform="matrix(0.593028,0,0,0.533431,-73.44042,-192.4064)"
       spreadMethod="reflect" />
    <linearGradient
       x1="791.17993"
       y1="1769.6221"
       x2="806.98022"
       y2="1747.3987"
       id="linearGradient3132"
       xlink:href="#linearGradient4511"
       gradientUnits="userSpaceOnUse"
       gradientTransform="matrix(0.593028,0,0,0.533431,-79.75629,-188.9785)"
       spreadMethod="reflect" />
    <linearGradient
       x1="791.17993"
       y1="1769.6221"
       x2="806.98022"
       y2="1747.3987"
       id="linearGradient3147"
       xlink:href="#linearGradient4511"
       gradientUnits="userSpaceOnUse"
       gradientTransform="matrix(0.3765544,0,0,0.29961326,-191.20025,-132.34665)"
       spreadMethod="reflect" />
    <linearGradient
       x1="791.17993"
       y1="1769.6221"
       x2="806.98022"
       y2="1747.3987"
       id="linearGradient3150"
       xlink:href="#linearGradient4511"
       gradientUnits="userSpaceOnUse"
       gradientTransform="matrix(0.3765544,0,0,0.29961326,-187.18987,-134.272)"
       spreadMethod="reflect" />
    <linearGradient
       x1="477.25916"
       y1="806.07935"
       x2="463.0274"
       y2="672.78888"
       id="linearGradient3161"
       xlink:href="#linearGradient21172"
       gradientUnits="userSpaceOnUse"
       gradientTransform="matrix(0.634969,0,0,0.561672,-140.55748,-26.202716)" />
    <linearGradient
       x1="390.95264"
       y1="781.185"
       x2="379.8815"
       y2="821.13818"
       id="linearGradient3165"
       xlink:href="#linearGradient4511"
       gradientUnits="userSpaceOnUse"
       gradientTransform="matrix(0.63873881,0,0,0.561672,-143.10853,-26.202716)" />
    <linearGradient
       x1="336.64285"
       y1="340.93359"
       x2="395.71429"
       y2="309.505"
       id="linearGradient3170"
       xlink:href="#linearGradient4511"
       gradientUnits="userSpaceOnUse"
       gradientTransform="matrix(0.634969,0,0,0.561672,-140.55748,-26.202716)" />
    <linearGradient
       x1="313.78574"
       y1="259.50504"
       x2="363.35715"
       y2="239.50504"
       id="linearGradient3174"
       xlink:href="#linearGradient4511"
       gradientUnits="userSpaceOnUse"
       gradientTransform="matrix(0.634969,0,0,0.561672,-140.55748,-26.202716)" />
    <linearGradient
       x1="267.88959"
       y1="581.33203"
       x2="435.35544"
       y2="581.33203"
       id="linearGradient3186"
       xlink:href="#linearGradient4511"
       gradientUnits="userSpaceOnUse"
       gradientTransform="matrix(0.634969,0,0,0.53896135,-140.55748,-15.580139)" />
    <linearGradient
       x1="459.52634"
       y1="917.3114"
       x2="624.88544"
       y2="943.7016"
       id="linearGradient3191"
       xlink:href="#linearGradient21172"
       gradientUnits="userSpaceOnUse"
       gradientTransform="matrix(0.634969,0,0,0.561672,-140.55748,-26.202716)"
       spreadMethod="reflect" />
    <linearGradient
       x1="580.76904"
       y1="845.57513"
       x2="723.41833"
       y2="882.38538"
       id="linearGradient3195"
       xlink:href="#linearGradient22071"
       gradientUnits="userSpaceOnUse"
       gradientTransform="matrix(0.634969,0,0,0.561672,-140.55748,-26.202716)"
       spreadMethod="reflect" />
    <linearGradient
       x1="791.17993"
       y1="1769.6221"
       x2="806.98022"
       y2="1747.3987"
       id="linearGradient3087"
       xlink:href="#linearGradient4511"
       gradientUnits="userSpaceOnUse"
       gradientTransform="matrix(0.3765544,0,0,0.29961326,-191.20025,-132.34665)"
       spreadMethod="reflect" />
  </defs>
  <path
     d="m 331.6006,427.98141 -8.87759,10.25599 0.13568,34.65979 10.09647,-10.69159 -1.35456,-34.22419 z"
     id="path22955"
     style="fill:#c5c8bc;fill-opacity:1;fill-rule:evenodd;stroke:#000000;stroke-width:2.27674365;stroke-linecap:butt;stroke-linejoin:round;stroke-miterlimit:4;stroke-opacity:1;stroke-dasharray:none;display:inline" />
  <path
     d="m 287.34276,470.63875 -8.37847,11.5278 1.79539,37.72732 9.57539,-12.05178 -2.99231,-37.20334 z"
     id="path22080"
     style="fill:#c5c8bc;fill-opacity:1;fill-rule:evenodd;stroke:#000000;stroke-width:2.37659955;stroke-linecap:butt;stroke-linejoin:round;stroke-miterlimit:4;stroke-opacity:1;stroke-dasharray:none" />
  <path
     d="m 152.98459,425.01738 c 0,0 148.48968,10.94575 153.98929,11.55384 5.49962,0.6081 14.43649,0.6081 14.43649,0.6081 0,0 1.37491,0 1.37491,3.04049 0,3.04048 0,30.40484 0,30.40484 0,0 0.68745,2.43238 -2.06235,2.43238 -2.74981,0 -43.30949,-3.64857 -43.30949,-3.64857 0,0 -0.68745,-4.25669 -4.81217,-4.25669 -4.12471,0 -123.05394,-10.33764 -123.05394,-10.33764 0,0 -14.43649,-10.94574 -15.12394,-14.59432 -0.68746,-3.64859 -5.49962,-11.55384 -2.06236,-13.37813 3.43726,-1.8243 21.31102,-2.43239 20.62356,-1.8243 z"
     id="path21180"
     style="fill:url(#linearGradient3195);fill-opacity:1;fill-rule:evenodd;stroke:#000000;stroke-width:2.68738675;stroke-linecap:round;stroke-linejoin:round;stroke-miterlimit:4;stroke-opacity:1;stroke-dasharray:none;display:inline" />
  <path
     d="m 68.618916,415.75977 -27.374218,30.8728 -17.49967,-10.31974 c 0,0 11.666451,-9.88976 14.58306,-11.60971 2.91661,-1.71996 7.777634,-5.58987 13.124759,-5.58987 5.833219,0 122.983823,-3.00992 127.358743,-3.00992 4.37492,0 133.67808,10.31974 138.5391,10.31974 4.86102,0 11.66645,0.85998 11.66645,0.85998 0,0 1.94441,-0.42999 0.9722,1.28997 -0.9722,1.71996 -7.29153,9.02978 -7.29153,9.02978 L 170.06175,427.71304 68.618916,415.75977 z"
     id="path18548"
     style="fill:#ffffff;fill-opacity:1;fill-rule:evenodd;stroke:#000000;stroke-width:2.68738675;stroke-linecap:butt;stroke-linejoin:round;stroke-miterlimit:4;stroke-opacity:1;stroke-dasharray:none;display:inline" />
  <path
     d="m 24.089791,437.39979 c 0,0 7.896754,4.88964 10.660615,6.63594 2.763868,1.7463 5.922566,3.14334 5.922566,3.14334 l 2.763861,-7.33446 c 0,0 5.641814,2.66384 10.265779,5.93742 4.325428,3.06222 29.50974,14.14416 51.723728,17.81225 22.21398,3.66809 86.07459,13.27188 115.68741,15.01818 29.61282,1.7463 58.04113,3.14334 58.04113,3.14334 l 1.97418,37.72006 -41.45795,-2.79407 c 0,0 0.78968,0.69852 -3.55353,-0.34926 -4.34321,-1.04778 -7.89675,-4.88964 -7.89675,-4.88964 0,0 -50.93406,-5.2389 -53.30308,-5.2389 -2.36903,0 -82.915891,-10.12854 -93.971342,-13.9704 -11.055452,-3.84186 -16.978017,-6.28667 -18.952206,-5.2389 -1.974188,1.04779 -3.158704,3.4926 -3.158704,3.4926 0.542479,0.23993 -14.197481,-3.51158 -22.50574,-7.68371 C 28.0215,478.63144 21.32593,473.0243 21.32593,473.0243 l 0.789673,-15.36744 1.974188,-20.25707 z"
     id="path16799"
     style="fill:url(#linearGradient3191);fill-opacity:1;fill-rule:evenodd;stroke:#000000;stroke-width:2.68738675;stroke-linecap:round;stroke-linejoin:round;stroke-miterlimit:4;stroke-opacity:1;stroke-dasharray:none;display:inline" />
  <path
     d="m 107.74172,267.51718 c -2.70584,-3.16963 0.0704,-8.00273 -3.07648,-11.14853 -0.81651,-4.64253 -5.805037,-6.07431 -7.652862,-9.48863 1.512607,-2.21609 5.209892,-4.10607 2.119303,-7.29074 -2.830067,-2.65815 -3.267318,-6.93323 1.506639,-7.2434 4.22909,-1.87184 8.425,1.17405 8.74216,5.57873 0.91374,2.30087 1.00343,3.25482 -0.30435,4.76174 0.1053,4.90285 0.60169,9.93366 4.11413,14.07667 2.40635,3.14197 8.22037,5.61911 6.29044,10.56558 -1.91278,3.21556 -7.69993,4.98783 -10.52699,2.20471 -0.46911,-0.63161 -0.80487,-1.346 -1.21199,-2.01613 z"
     id="path1727"
     style="fill:#000000" />
  <path
     d="m 60.549508,153.44097 -42.458053,15.25476 c 0,0 -10.2213818,19.41512 -13.3664213,40.91044 -3.1450396,21.49532 -6.2900791,74.19353 11.0076443,104.70302 17.297724,30.50949 67.618376,88.75487 108.503912,104.00962 40.88552,15.25474 47.17561,15.94814 47.17561,15.94814 0,0 12.36396,-2.8914 9.43512,-8.32077 -11.6241,-21.54829 -40.10268,-83.24867 -40.10268,-83.24867 l -17.3114,6.24058 -25.919259,2.79408 c 0,0 -22.025532,-18.70125 -29.101868,-29.79561 -7.076348,-11.09436 -30.664151,-54.085 -22.015289,-67.95295 8.648862,-13.86795 14.938941,-13.86795 20.442763,-12.48116 5.503829,1.3868 16.511467,10.40097 16.511467,10.40097 l 18.083976,-5.54718 -40.885522,-92.91527 z"
     id="path9785"
     style="fill:#e1e4df;fill-opacity:1;fill-rule:evenodd;stroke:#000000;stroke-width:3.02794862;stroke-linecap:round;stroke-linejoin:round;stroke-miterlimit:4;stroke-opacity:1;stroke-dasharray:none" />
  <path
     d="m 73.0339,243.99759 c 0,0 -9.667054,-8.35264 -22.449545,-5.98876 -15.620231,2.88866 -24.147534,22.2962 -17.484284,42.8437 6.515258,20.09115 38.365297,71.27961 51.002615,77.56947 13.113863,6.52705 24.428054,-0.16395 33.188884,-2.81564 5.40371,-1.63557 17.31822,-8.16649 17.31822,-8.16649 l -7.69699,-5.98877 -28.863693,1.6333 c 0,0 -1.282834,2.17773 -8.97982,-3.81103 -7.696987,-5.98877 -32.11644,-33.92839 -41.299686,-60.71397 -4.868739,-14.20107 -1.627502,-26.08874 4.228272,-30.84769 6.003054,-4.87864 13.339041,-7.52515 15.904703,-6.43629 2.565662,1.08887 4.489904,3.81104 5.131324,2.72217 z"
     id="path26460"
     style="fill:url(#linearGradient3186);fill-opacity:1;fill-rule:evenodd;stroke:#000000;stroke-width:2.33999538;stroke-linecap:round;stroke-linejoin:round;stroke-miterlimit:4;stroke-opacity:1;stroke-dasharray:none;display:inline" />
  <path
     d="m 119.60099,107.02821 c 1.61762,3.04686 -11.55816,11.47449 -29.755274,19.03237 -18.197103,7.55789 -34.8342,11.51257 -37.572058,8.93098 -2.737868,-2.58159 9.413703,-10.76576 27.442265,-18.48257 18.028557,-7.71681 35.413727,-12.17532 39.261457,-10.0688"
     id="path6275"
     style="color:#000000;fill:#000000;fill-opacity:1;fill-rule:evenodd;stroke:none;stroke-width:4.9000001;marker:none;visibility:visible;display:inline;overflow:visible" />
  <path
     d="m 229.35731,315.65493 c 0,-0.22495 0.59158,-0.73574 1.31464,-1.1352 0.72304,-0.39941 9.00939,-6.66884 18.4141,-13.93205 17.95371,-13.8656 18.10894,-14.02967 16.147,-17.06556 -1.09906,-1.70069 -1.16711,-2.24669 -0.28,-2.24669 0.36984,0 0.49584,0.25275 0.28,0.56167 -0.21583,0.30892 -0.0422,0.56168 0.38584,0.56168 0.42805,0 0.59784,0.15962 0.3773,0.35469 -0.22054,0.19507 -0.0671,0.89014 0.34104,1.5446 0.40811,0.65446 0.75523,1.52353 0.77138,1.93131 0.0356,0.8994 -4.92659,5.71782 -5.88845,5.71782 -0.37661,0 -1.44754,0.88463 -2.37985,1.96585 -0.9323,1.08122 -2.08123,1.96585 -2.55318,1.96585 -0.47194,0 -1.49184,0.75826 -2.26643,1.68502 -0.7746,0.92676 -1.77105,1.68502 -2.21434,1.68502 -0.44328,0 -1.60392,0.88463 -2.5792,1.96585 -0.97529,1.08122 -2.11823,1.96585 -2.53988,1.96585 -0.42165,0 -1.5646,0.88463 -2.53988,1.96585 -0.97528,1.08122 -2.11586,1.96585 -2.53463,1.96585 -0.41877,0 -1.52419,0.88464 -2.4565,1.96586 -0.9323,1.08121 -2.07525,1.96585 -2.53987,1.96585 -0.46463,0 -1.60544,0.88216 -2.53516,1.9604 -0.92971,1.07819 -1.94433,1.8215 -2.25471,1.65182 -0.31037,-0.16968 -0.56432,-0.0679 -0.56432,0.22624 0,0.2941 -0.4286,0.68019 -0.95245,0.85801 -0.52385,0.17783 -0.95245,0.1393 -0.95245,-0.0856 z"
     id="path3139"
     style="fill:#000000" />
  <path
     d="m 31.208968,219.87691 c -8.518788,-1.45557 -17.518153,-8.89992 -22.1879817,-18.35415 -3.215845,-6.51057 -2.5101785,-18.86325 1.4642447,-25.63151 1.912063,-3.25612 6.206746,-7.00894 9.940186,-8.68592 10.605766,-4.76399 12.741281,-5.42053 17.450275,-5.36481 5.447659,0.0645 10.047997,1.42462 15.897173,4.70024 7.714835,4.32044 12.727014,11.14571 14.731376,20.06017 1.788917,7.95631 0.985453,12.9516 -2.980691,18.53147 -1.499396,2.10953 -3.279507,4.29954 -3.95578,4.86683 -0.676287,0.56729 -1.229605,1.32403 -1.229605,1.68176 0,1.26882 -3.40191,3.62587 -8.483929,5.87818 -4.788415,2.12222 -5.598795,2.30078 -11.513899,2.53685 -3.499619,0.13968 -7.608732,0.041 -9.131369,-0.21911 z"
     id="path1707"
     style="fill:#000000" />
  <path
     d="m 41.377,216.75794 c 5.575683,-1.26641 11.870925,-3.24092 14.670827,-8.68926 2.192093,-5.14543 8.626817,-7.12079 8.964797,-13.01562 0.783411,-6.83244 -2.176265,-13.52656 -5.627872,-19.24307 -3.655748,-5.69964 -9.576179,-9.63308 -16.107353,-11.25295 -4.062859,-1.36487 -8.867965,-2.8658 -12.837341,-0.64586 2.292602,1.48247 7.171089,0.84945 10.246278,2.43119 8.537853,2.37644 15.665577,9.01152 18.523395,17.41031 1.072915,1.81475 1.199219,5.50749 -0.22111,1.44898 -5.516147,-10.63316 -16.939357,-19.33382 -29.389082,-18.10811 -8.168253,0.59483 -16.555815,5.10711 -19.564721,13.08121 -3.4516139,8.25062 -2.3246638,18.34966 3.575077,25.22225 6.353252,8.31935 17.220462,13.85573 27.767105,11.36093 z"
     id="path1705"
     style="fill:#403c3d;fill-opacity:1" />
  <g
     transform="matrix(0.60599473,0,0,0.561672,-446.09339,-798.10012)"
     id="g2838"
     style="fill:url(#linearGradient3120);fill-opacity:1">
    <path
       d="m 784.84574,1801.1244 c -8.34203,-2.5467 -16.76177,-9.7573 -20.92678,-17.9214 -2.99007,-5.861 -4.23774,-16.0734 -2.69183,-22.033 2.90905,-11.2147 11.30822,-21.1169 19.59857,-23.1057 6.99365,-1.6777 17.45625,-0.8477 22.63261,1.7956 5.023,2.5649 12.98956,11.2156 14.30208,15.5302 0.53028,1.7432 1.64666,4.9694 2.48085,7.1694 4.93924,13.0262 -2.37359,31.3213 -14.83989,37.1263 -5.22456,2.4328 -15.04709,3.1203 -20.55561,1.4386 z"
       id="path1703"
       style="fill:url(#linearGradient3116);fill-opacity:1" />
    <path
       d="m 798.77072,1795.5065 c 7.06104,-2.9496 11.51014,-8.8036 14.17947,-18.6571 1.47774,-5.4548 0.80409,-10.3778 -2.09166,-15.2858 -1.11576,-1.891 -1.74832,-3.8919 -1.40569,-4.4462 0.90769,-1.4687 -7.21912,-9.8922 -11.7969,-12.2276 -4.996,-2.5488 -12.96726,-3.3749 -18.39917,-1.9067 -3.35562,0.9069 -5.2774,2.4308 -9.28166,7.3601 -10.58538,13.0306 -10.18148,25.9636 1.21734,38.9803 5.84031,6.6693 19.22852,9.6708 27.57827,6.183 z"
       id="path1701"
       style="fill:url(#linearGradient3118);fill-opacity:1" />
  </g>
  <path
     d="m 36.069707,79.926556 c -0.853589,-1.621827 -1.554785,-3.499104 -1.558214,-4.171762 -0.0057,-1.085937 2.181753,-3.166595 3.844102,-3.656766 0.336407,-0.09919 -1.845029,-5.234277 -4.847734,-11.411265 -12.055712,-24.800571 -19.95653,-41.740374 -19.95653,-42.787836 0,-1.711021 2.211255,-3.071672 10.650869,-6.553645 12.263283,-5.0595415 25.503784,-9.5090509 29.130663,-9.7894376 2.905555,-0.2246126 3.379115,-0.1044148 4.240133,1.0758827 0.533056,0.7307915 4.583523,9.1640159 9.001003,18.7405229 4.417415,9.576508 9.907611,21.15004 12.200421,25.718961 l 4.168635,8.307129 2.644963,-0.35082 c 3.096871,-0.410807 3.49252,-0.109302 5.362187,4.086444 2.059775,4.622561 3.002831,3.950015 -14.536917,10.367792 -5.063878,1.852899 -15.213286,5.619921 -22.554226,8.371215 -7.34094,2.751294 -13.997447,5.002363 -14.792238,5.002363 -1.122879,0 -1.79112,-0.657437 -2.997117,-2.948778 z"
     id="path1681"
     style="fill:#ffffff;fill-opacity:1;stroke:#000000;stroke-width:2.92626548;stroke-miterlimit:4;stroke-opacity:1;stroke-dasharray:none" />
  <path
     d="m 44.20733,5.2621624 c -0.918845,0.5258508 3.129419,0.1223299 5.253613,0.8207381 6.721623,4.5816505 8.753689,11.6725445 11.521074,18.1198265 1.65612,7.880889 11.018674,22.775745 13.961572,30.230801 2.661555,5.695214 2.013766,3.646813 9.198586,5.633065 2.236469,0.457498 0.910984,3.789842 4.317783,2.934039 2.100807,-0.749388 -0.642151,-4.698858 -3.851913,-5.038905 -4.423657,1.401108 -4.602166,0.238975 -6.960816,-3.383366 C 72.68487,46.359487 69.153211,37.527998 66.937671,31.747102 64.722124,25.966204 62.712943,23.177918 62.128587,18.713492 60.496247,13.774624 56.563731,7.7834159 51.299965,4.8107039 50.695837,4.3010674 45.04667,5.2321309 44.20733,5.2621624 z"
     id="path33543"
     style="opacity:0.18539327;fill:#2d371f;fill-opacity:1;fill-rule:nonzero;stroke:none" />
  <path
     d="M 40.862237,83.446516 62.6326,133.1946 118.87271,110.72772 93.473952,64.189187 40.862237,83.446516 z"
     id="path3636"
     style="fill:url(#linearGradient3174);fill-opacity:1;fill-rule:evenodd;stroke:#000000;stroke-width:2.80682588;stroke-linecap:round;stroke-linejoin:round;stroke-miterlimit:4;stroke-opacity:1;stroke-dasharray:none" />
  <path
     d="M 42.889033,6.7604095 C 33.805204,7.9962014 25.958829,12.72804 17.430744,15.325907 c -1.118358,0.106003 -2.745612,-1.993362 -3.293901,-0.210626 -0.596249,0.800582 -2.841893,1.640199 -2.202549,3.352479 3.451818,5.215679 5.976601,11.29807 8.036326,17.095892 0.02235,1.908089 2.259055,3.092538 2.69738,5.143775 5.066951,10.379317 10.587816,20.715334 14.764268,31.364905 0.835327,2.626181 -5.06904,2.632579 -3.532015,5.581615 0.774319,2.254642 2.810366,6.011997 6.156627,4.381424 11.276072,-4.558946 23.100947,-8.388667 34.163904,-13.385728 3.304627,-1.143255 5.603532,-5.061872 2.797832,-7.617677 C 74.106483,59.843317 61.32904,66.228775 58.414761,66.653629 60.256381,65.742642 74.275277,59.84257 71.958707,57.486412 69.574087,54.292408 69.458974,50.081817 67.366694,46.69366 64.921955,41.231619 63.037894,35.592067 60.251466,30.297977 59.401846,26.868762 57.22843,23.80675 56.044797,20.468717 53.119418,16.141786 50.405008,11.513575 46.837746,7.567813 45.721058,6.818861 44.259499,6.6271174 42.889033,6.7604095 z"
     id="path2953"
     style="fill:#000000" />
  <path
     d="m 52.017188,133.25426 c 0,0 20.139953,-5.45416 38.735471,-12.67565 18.595521,-7.2215 28.303831,-14.02539 28.303831,-14.02539 l 54.24213,114.90413 c 0,0 -12.9017,7.26475 -28.77593,13.28266 -15.87422,6.01792 -34.72097,10.78899 -34.72097,10.78899 l -3.62839,-11.23344 -7.256785,0 -46.899357,-101.0413 z"
     id="path5392"
     style="fill:url(#linearGradient3170);fill-opacity:1;fill-rule:evenodd;stroke:#000000;stroke-width:3.46374297;stroke-linecap:round;stroke-linejoin:round;stroke-miterlimit:4;stroke-opacity:1;stroke-dasharray:none" />
  <path
     d="m 120.52425,242.60058 4.68892,10.13873 7.29388,-0.46085 5.20992,13.36468 3.12594,1.38255 11.9828,25.80768 28.13353,-10.59959 -14.06676,-26.72937 1.56297,-3.6868 -6.25189,-12.90383 3.12595,-0.92171 -4.16794,-10.59958 c 0,0 -9.63833,4.95415 -19.79767,8.75617 -10.15932,3.80203 -20.83965,6.45192 -20.83965,6.45192 z"
     id="path8029"
     style="fill:#4d4641;fill-opacity:1;fill-rule:evenodd;stroke:none" />
  <path
     d="m 153.09806,290.32634 c -1.21261,-2.76746 -3.80248,-5.17711 -3.64968,-8.38102 0.39723,-2.13288 5.26285,-3.08972 2.2249,-5.47883 -2.47363,-1.47839 -6.27768,-1.09509 -7.589,-4.14044 -1.81049,-3.14987 -2.85975,-7.24552 -6.42841,-8.90967 -1.84661,-3.46219 -3.3891,-7.08846 -5.46193,-10.42802 -0.72878,-3.33354 -4.7767,-1.34197 -6.91207,-2.72388 -1.51926,-1.91484 -3.34497,-4.68286 -2.11167,-7.22331 1.81102,-2.06517 5.00032,-1.40847 7.3161,-2.7698 7.15006,-2.44191 14.25028,-5.03207 21.4499,-7.32713 2.9913,0.004 3.82014,3.36099 5.07413,5.45798 2.85432,2.17059 -1.28512,5.50224 0.49564,8.53136 1.14437,2.55583 1.72906,5.62363 4.491,7.0305 1.5065,1.01983 3.86697,1.79742 1.74261,3.45029 -1.73819,3.35669 0.5202,6.94225 2.08401,9.88411 2.58069,5.08668 4.66281,10.52192 8.32836,14.96785 -2.58309,2.78489 -6.14581,4.43116 -9.58398,5.86659 -3.78183,0.79189 -7.49887,3.17472 -11.46991,2.19342 z"
     id="path3127"
     style="fill:#000000" />
  <path
     d="m 284.90685,469.55153 c 1.43466,0.0757 3.17545,1.07409 2.8085,1.97572 -0.26023,0.63941 -8.4255,11.36034 -8.4255,11.36034 0,0 -147.16539,-13.33606 -155.59089,-14.81785 -8.4255,-1.48178 -49.991294,-10.86641 -57.2934,-14.32391 -6.870656,-3.25321 -23.31055,-9.6316 -23.029703,-14.32391 0.310341,-5.18495 34.735255,-42.85017 51.1147,-60.25923 16.148873,-17.164 31.058343,-9.51439 35.948803,-0.98786 3.55565,6.19929 3.99036,30.61798 5.0553,39.51425 1.1234,9.38464 5.5478,27.22853 11.7957,33.58711 6.4818,6.59664 51.1147,10.37249 74.14439,12.3482 23.02971,1.97572 61.6928,5.83324 63.4721,5.92714 z"
     id="path15907"
     style="fill:url(#linearGradient3165);fill-opacity:1;fill-rule:evenodd;stroke:#000000;stroke-width:2.51566243;stroke-linecap:round;stroke-linejoin:round;stroke-miterlimit:4;stroke-opacity:1;stroke-dasharray:none;display:inline" />
  <path
     d="m 139.923,341.70812 38.84105,79.35664 c 0,0 0.90581,2.15479 1.3749,3.64858 1.71864,5.47287 -6.18706,8.2093 -6.18706,8.2093 l -5.49962,0.6081 c 0,0 1.3749,-1.82429 1.03118,-3.04048 -0.34373,-1.21619 -42.96576,-85.13356 -42.96576,-85.13356 l 13.40531,-3.64858 z"
     id="path22957"
     style="fill:url(#linearGradient3161);fill-opacity:1;fill-rule:evenodd;stroke:#000000;stroke-width:2.38878822;stroke-linecap:butt;stroke-linejoin:round;stroke-miterlimit:4;stroke-opacity:1;stroke-dasharray:none;display:inline" />
  <path
     d="m 97.859264,360.49022 c -5.61461,-0.21132 -12.043642,-0.41667 -12.956479,-7.75899 -4.980409,-6.64706 -1.161749,-12.4886 5.475297,-15.4244 4.033586,-3.0507 11.761818,-7.27473 13.428448,-9.86762 -6.804137,2.05394 -13.394836,7.82261 -20.865902,5.31594 -3.229037,-7.42273 10.236188,-4.95771 14.595485,-7.14637 9.013197,0.16848 -1.375959,-9.19859 6.314717,-10.18768 3.7698,-2.38025 3.1347,1.66623 7.67298,0.14376 2.38981,1.96187 0.74768,7.92989 4.16937,2.76868 4.17367,-2.95576 12.52865,-4.24235 18.05047,-7.48894 4.97857,0.63737 6.96228,-6.70955 1.96232,-5.18743 -5.59568,2.39149 -11.24054,5.60623 -17.55177,4.45847 -5.97035,-1.95315 3.54577,-7.37779 7.28547,-5.89319 5.19636,-0.50945 12.44041,-2.318 8.58962,-8.49216 2.9892,-3.47459 9.46716,-6.87013 10.30166,-2.18481 3.36039,4.46266 3.36535,13.07293 10.64414,7.83836 22.87119,-6.78765 45.97584,-12.80813 68.48875,-20.75729 9.73254,-2.78004 19.13126,-7.32318 29.26424,-8.36073 8.16374,-1.88878 9.27187,8.86684 12.04447,14.20508 -5.39972,6.4074 -12.91694,10.87182 -19.34012,16.27137 -5.72559,4.31158 -11.28015,8.93779 -17.11095,13.05585 -25.01105,8.93845 -50.21198,17.33939 -75.35558,25.87988 -4.5072,4.27706 -9.6638,6.75061 -15.76244,8.32449 -0.0949,-4.47661 11.77646,-3.74907 8.8975,-6.2974 -5.59456,1.14636 -13.21426,5.22609 -16.73745,6.3582 -6.38904,0.31836 -12.79294,3.84944 -19.17823,5.40401 -4.20395,1.02982 -9.61329,3.40354 -12.326016,5.02292 z"
     id="path1793"
     style="fill:#43433d;fill-opacity:1;stroke:#000000;stroke-width:2.68738675;stroke-linecap:round;stroke-linejoin:round;stroke-miterlimit:4;stroke-opacity:1;stroke-dasharray:none" />
  <path
     d="m 99.981864,354.15236 c -6.047003,-3.12246 -3.290256,-11.38796 1.536256,-14.25452 5.27109,-5.05611 12.16086,-7.93685 19.25524,-9.2923 5.51398,-1.44561 11.25783,-3.2955 15.34568,-7.4779 12.17622,-5.16953 25.79331,-5.1621 38.07405,-10.02026 10.7324,-3.35857 21.69196,-6.44402 32.96541,-7.01032 7.71589,-2.00271 15.30289,-6.42505 23.50964,-5.03772 5.765,2.37839 4.91149,11.89597 -1.14208,13.42464 -13.18142,6.96863 -28.27225,8.81767 -41.91331,14.62726 -26.89221,8.21211 -52.80152,19.63465 -80.25997,25.95365 -2.46051,0.38715 -5.18123,0.47231 -7.370916,-0.91253 z"
     id="path3239"
     style="fill:#000000" />
  <path
     d="m 127.34136,314.08752 c 1.21266,-1.27664 3.03523,-2.12572 4.48051,-3.05376 1.38826,-1.17476 2.90704,-1.97521 4.20178,-3.13232 1.04675,-0.4993 2.75627,-1.80703 1.97254,-2.7223 -1.99967,-1.12313 -3.73635,0.5594 -5.18949,1.0655 -1.67203,0.59566 -2.96832,1.33832 -4.51477,1.96085 -1.59173,0.6127 -2.86584,1.37462 -4.56185,1.97549 -1.77156,0.72605 -4.48765,1.02161 -6.62398,0.66067 -1.82877,-0.58078 -2.18256,-3.29641 -0.20889,-3.39181 0.63311,-0.70108 2.2459,-0.41972 2.82167,-1.0099 1.42933,1.02619 -2.06641,1.25649 -2.71308,1.99997 -1.59652,1.74135 2.46605,2.10188 3.74576,1.56834 1.94474,-0.37063 4.40463,-0.85669 5.42283,-2.49678 -0.33437,-1.69905 -4.07819,0.10792 -4.09635,-1.41811 2.28813,-0.54769 5.04079,0.84026 6.97239,-0.74624 1.76529,-0.11684 3.63568,-0.30139 4.62252,-1.58878 1.8597,-0.39713 2.86626,-2.08848 1.54969,-3.32209 0.26312,-0.65613 0.11334,-1.91162 -0.94747,-1.23361 0.35179,-0.96269 0.48901,-2.02723 -0.68261,-1.9687 -0.63956,-2.01554 5.05237,-0.22758 2.9861,-2.55056 0.33259,-0.68477 2.5775,-1.60425 2.78051,-1.02773 -0.61743,0.33167 -2.06479,1.30325 -0.39618,0.96092 0.92803,-0.39204 3.3692,-0.13417 3.53877,-0.57736 -0.77114,-0.20592 -2.72133,-0.80906 -0.70225,-0.73346 2.0259,-0.008 2.06706,1.99733 2.87199,2.84936 0.36665,1.0286 0.87318,1.82106 2.40855,1.8071 -1.19219,0.0112 -2.0851,1.94188 -0.25024,1.09218 1.13676,-1.12201 6.91496,2.51603 1.9996,5.34723 -1.16523,0.6255 -4.66525,-3.34586 -4.47305,-5.3636 -0.0939,-1.55421 -0.44354,-3.7655 -2.56597,-4.05993 -2.11226,-0.44727 -4.47166,1.42138 -3.49811,3.3379 0.56089,1.12426 3.13962,3.4121 0.94528,4.06456 -1.96933,-0.60197 -2.08372,1.44068 -0.6535,2.19378 1.70748,2.12456 -2.35237,3.27924 -3.59552,4.6996 -2.47555,1.81843 -5.23796,3.29589 -7.93748,4.82192 l 0.0597,0.0256 0.23061,-0.0339 0,-1e-5 z"
     id="path14158"
     style="fill:#000000;display:inline" />
  <path
     d="m 93.053031,337.67775 c 3.299293,-2.77918 7.421939,-4.54365 10.432829,-7.65437 0.0104,-3.39513 -4.806453,-0.29829 -6.496653,0.50296 -4.632181,1.72921 -9.259934,5.03795 -14.447871,3.81961 -4.285834,-2.00789 3.576299,-5.45957 2.482104,-3.54814 -2.734283,0.52718 -2.988697,3.81409 0.30493,2.9012 1.97405,0.0622 6.930886,-1.00149 5.665772,-3.2179 -1.878807,0.2503 -4.239721,-1.09225 -1.032007,-0.80959 3.599719,0.13393 7.382275,-0.7778 10.440305,-2.6814 3.61769,-2.16899 -3.374104,-6.5181 0.43058,-7.21052 2.63778,0.19876 1.00709,-3.41259 3.9076,-2.44728 -1.5075,1.79877 4.52711,0.32657 2.75906,-0.45604 2.81329,0.0506 2.29548,4.46953 4.94918,4.67535 -1.8965,2.78916 3.52176,-1.67123 5.10887,-1.58185 3.60331,-1.80193 7.45273,-3.11253 11.176,-4.58223 -1.53543,1.49895 -5.03032,2.60289 -7.37611,3.84633 -3.19422,1.37564 -6.23483,3.13884 -9.43266,4.46076 -3.05267,-0.3724 -2.03914,-7.47618 -6.72832,-4.86259 -4.12702,2.25775 3.57604,6.66207 -1.48767,7.4949 0.65163,1.40594 1.46128,4.7193 -1.5069,5.45286 -2.715478,2.17161 -6.902816,4.37967 -9.149039,5.89794 z"
     id="path3229"
     style="fill:#000000" />
  <path
     d="m 178.01677,406.57396 c -3.00833,-0.82976 -3.67049,-4.88194 -5.50849,-5.83774 -2.13726,2.71996 -7.89533,4.17278 -11.30248,2.1689 -5.12168,-2.97579 -5.88437,-8.93895 -5.00571,-13.86375 0.42923,-1.96877 3.32066,-0.58161 2.41115,-3.34037 1.90857,-3.82999 6.37098,-1.12239 9.34077,0.28684 2.18779,0.65575 3.1962,-3.72782 4.496,-5.23214 0.68594,-6.21074 -0.10736,-13.07066 4.19138,-18.46214 4.17692,-4.95184 11.04023,-7.78352 17.81833,-8.73494 9.5328,-0.65861 19.18043,0.1462 28.41592,2.31778 4.90031,0.21518 8.50249,3.55101 12.77341,5.2846 7.36438,3.59295 14.35303,8.6198 18.17955,15.37073 3.61577,7.21072 1.56742,16.02503 -3.73616,22.14557 -6.30683,6.28787 -16.58368,7.10111 -25.5022,7.04977 -5.53686,0.0747 -11.0542,-0.47686 -16.43081,-1.62149 -4.67301,0.64171 -9.00084,3.07364 -13.91468,3.18715 -5.35274,0.4936 -11.11018,1.0646 -16.22598,-0.71877 z"
     id="path1845"
     style="fill:#ffffff;fill-opacity:1;stroke:#000000;stroke-width:2.68738675;stroke-linejoin:round;stroke-miterlimit:4;stroke-opacity:1;stroke-dasharray:none" />
  <path
     d="m 202.72264,356.69962 c -9.20411,0.49818 -20.11276,1.3665 -26.07669,9.39179 -1.67123,6.36267 -1.4987,13.94171 0.16429,20.13695 1.71586,6.1011 16.36161,6.421 11.85545,13.30826 -5.79049,3.04934 -15.84292,0.85055 -14.39562,-7.46201 -4.95713,-3.93377 -14.03224,4.99587 -4.85423,5.89288 8.07685,-0.81175 9.31866,11.3476 18.2689,8.5667 6.49953,0.0817 12.15918,-3.45417 18.44321,-4.31343 11.32003,2.8869 23.78948,3.74893 34.8019,-1.00422 3.59059,-3.433 9.89938,-2.72208 9.85175,-9.60666 1.42317,-3.42944 1.88437,-9.98571 0.2593,-2.76557 -4.23724,8.25397 -14.6039,12.40882 -23.55238,10.56885 -7.88911,-0.96662 -3.44554,-11.7273 -9.50515,-15.24095 -6.35365,-7.22654 -13.37834,-14.08261 -17.87998,-22.69838 -4.3465,-3.27157 4.10868,-1.58023 2.61925,-4.77421 z m -15.97344,6.6523 c -2.40599,2.00521 -12.28792,7.20461 -7.11716,0.72069 0.74419,-1.65175 12.15777,-4.93328 7.11716,-0.72069 z"
     id="path1843"
     style="fill:#2c2a26;fill-opacity:1" />
  <path
     d="m 61.14284,239.78522 c -24.259013,16.0757 -10.134347,15.12457 -18.247944,26.2849 -1.632748,7.1762 4.772366,21.61731 -6.679042,21.69581 -6.455624,-3.97776 -4.3178,-13.06535 -4.6855,-19.91963 0.103113,-12.7078 1.135119,-25.85858 14.785152,-27.73118 3.332017,-0.27317 12.684798,-3.29701 14.827334,-0.3299 z"
     id="path28228"
     style="fill:#111100;fill-opacity:0.27374297;fill-rule:nonzero;stroke:none" />
  <path
     d="m 260.16784,273.72118 -30.27742,24.35144 5.71271,12.17572 26.27853,-22.23392 c 0,0 0.57127,0 3.42763,-2.11752 2.85636,-2.11751 -3.9989,-11.11695 -5.14145,-12.17572 z"
     id="path12407"
     style="fill:#2a2c23;fill-opacity:1;fill-rule:evenodd;stroke:none" />
  <path
     d="m 113.59053,403.68546 c 2.65887,-0.88374 4.33419,-2.63767 5.33934,-5.58991 0.55644,-1.63433 0.30278,-3.10932 -0.78763,-4.57983 -0.42014,-0.56657 -0.65833,-1.16606 -0.52931,-1.33214 0.34179,-0.44004 -2.71839,-2.96383 -4.44217,-3.66355 -1.88127,-0.76365 -4.88287,-1.01116 -6.92829,-0.57127 -1.26357,0.27172 -1.98722,0.7283 -3.49504,2.20518 -3.98597,3.90414 -3.833882,7.77904 0.45839,11.67902 2.19919,1.99821 7.24058,2.89749 10.38471,1.8525 z"
     id="path30858"
     style="fill:url(#linearGradient3150);fill-opacity:1;stroke:#000000;stroke-width:2.56794739;stroke-linejoin:round;stroke-miterlimit:4;stroke-opacity:1;stroke-dasharray:none;display:inline" />
  <path
     d="m 109.58015,405.61082 c 2.22696,-0.67078 4.0511,-2.39556 4.93038,-4.53835 0.70239,-1.43691 1.0102,-3.19524 0.21707,-4.66411 -0.38213,-0.8478 -1.28579,-1.56788 -1.14709,-2.55448 -0.89705,-1.26345 -2.2362,-2.14524 -3.5323,-2.96181 -2.1104,-1.17744 -4.64297,-1.35932 -7.00832,-1.15103 -1.50993,0.0947 -2.86421,0.87833 -3.898355,1.9491 -1.834619,1.68045 -3.538406,3.97301 -3.253198,6.59477 0.286935,2.39364 1.952333,4.35418 3.751603,5.83498 2.31784,1.57525 5.24438,2.07651 8.00278,1.87925 0.65667,-0.062 1.31044,-0.18063 1.93743,-0.38832 z"
     id="path31735"
     style="fill:url(#linearGradient3087);fill-opacity:1;stroke:#000000;stroke-width:2.56794739;stroke-linejoin:round;stroke-miterlimit:4;stroke-opacity:1;stroke-dasharray:none;display:inline" />
  <path
     d="m 221.28145,283.665 c -1.69226,2.26846 -5.28971,2.13503 -7.45145,3.94118 0.2975,0.0492 4.6039,-2.40934 6.38347,-3.34334 1.05208,-0.59714 5.07808,-2.73358 4.57157,-2.58154 -3.46198,1.81564 -6.91026,3.65477 -10.33387,5.52505 1.54431,-0.77735 5.04869,-2.61214 5.48702,-2.7884 -1.52813,0.7894 -6.68504,3.40964 -6.10365,3.12085 1.26463,-0.62971 4.92488,-2.52732 4.80658,-2.40937 -4.62129,2.36995 -1.61611,3.33634 -13.98854,6.28887 -12.79468,3.0533 -13.09532,3.75438 -19.03227,5.76638 -5.32705,2.287 -11.25015,3.18784 -17.31004,1.8141 -3.14103,-0.27893 -5.98701,-1.41693 -9.01207,-2.06402 -3.89305,-0.72079 -7.9028,-0.0815 -11.38413,1.58552 -1.45668,0.61473 5.36813,-3.13058 2.15417,-1.02415 -3.8305,2.57168 -7.90242,4.90682 -12.51825,6.21263 -2.92178,0.98359 -6.69713,2.37908 -9.03219,3.05995 2.51892,-1.56884 4.61244,-3.80101 7.71087,-4.46879 2.52668,-0.69062 7.4477,-3.09701 8.72365,-2.53819 -1.55792,0.81974 -7.15922,3.36712 -3.06478,1.08388 5.24245,-3.30939 10.84007,-6.61714 17.27728,-7.66557 3.6823,-0.33249 7.25613,0.66995 10.6787,1.68975 3.78112,0.73149 7.71334,1.59063 11.51401,0.43562 5.24689,-1.21858 7.14833,-2.26868 12.25703,-3.84323 4.21023,-1.76629 11.85587,-3.06579 16.08498,-4.89748 2.64764,-0.0401 7.02471,-1.61713 8.18365,-2.1573 -1.65447,0.8442 -5.21857,2.67569 -5.74319,2.94922 1.52925,-0.78632 6.66175,-3.43499 6.10677,-3.10901 -1.29981,0.67735 1.69464,-0.8404 1.29583,-0.76891 -1.31728,0.67096 2.03668,-1.2285 0.94803,-0.6205 -1.64895,0.95433 -0.12063,-0.15781 0.79082,0.8068 z"
     id="path32621"
     style="fill:#868783;fill-opacity:1;fill-rule:nonzero;stroke:none;display:inline" />
  <path
     d="m 194.0685,302.11994 c -1.69227,2.26845 -5.28971,2.13503 -7.45145,3.94118 0.2975,0.0492 4.6039,-2.40934 6.38347,-3.34335 1.05208,-0.59713 5.07807,-2.73358 4.57156,-2.58153 -3.46198,1.81564 -6.91026,3.65477 -10.33386,5.52504 1.5443,-0.77734 5.04868,-2.61213 5.48702,-2.78839 -1.52814,0.7894 -6.68505,3.40964 -6.10365,3.12084 1.26462,-0.6297 4.92487,-2.52732 4.80657,-2.40936 -4.62128,2.36994 -1.61611,3.33633 -13.98854,6.28887 -12.79468,3.0533 -13.09531,3.75438 -19.03226,5.76637 -5.32706,2.28701 -11.25016,3.18785 -17.31005,1.81411 -3.14102,-0.27894 -5.98701,-1.41694 -9.01206,-2.06402 -3.89305,-0.7208 -7.90281,-0.0815 -11.38413,1.58551 -1.45668,0.61473 5.36812,-3.13057 2.15417,-1.02414 -3.8305,2.57167 -7.90243,4.90681 -12.51826,6.21262 -2.92177,0.98359 -6.69712,2.37909 -9.03219,3.05995 2.51893,-1.56883 4.61245,-3.801 7.71087,-4.46878 2.52669,-0.69062 7.4477,-3.09701 8.72366,-2.53819 -1.55793,0.81973 -7.15923,3.36711 -3.06479,1.08388 5.24246,-3.3094 10.84008,-6.61714 17.27729,-7.66557 3.6823,-0.33249 7.25612,0.66994 10.6787,1.68974 3.78112,0.7315 7.71333,1.59064 11.514,0.43562 5.24689,-1.21858 7.14833,-2.26868 12.25703,-3.84323 4.21023,-1.76629 11.85587,-3.06579 16.08499,-4.89748 2.64763,-0.0401 7.02471,-1.61712 8.18364,-2.1573 -1.65447,0.8442 -5.21856,2.6757 -5.74318,2.94923 1.52925,-0.78633 6.66175,-3.435 6.10677,-3.10902 -1.29981,0.67735 1.69463,-0.84039 1.29583,-0.7689 -1.31728,0.67095 2.03668,-1.22851 0.94802,-0.62051 -1.64895,0.95434 -0.12063,-0.15781 0.79083,0.80681 z"
     id="path33498"
     style="fill:#868783;fill-opacity:1;fill-rule:nonzero;stroke:none;display:inline" />
  <path
     d="m 210.22321,286.61348 c -10.07408,2.51234 -19.61109,6.51913 -29.76417,8.68837 -8.40346,1.55588 -16.21777,-4.1488 -24.486,-1.59726 -1.77376,0.80745 -5.18618,2.01314 -6.34767,3.36379 0.81993,1.33391 2.95805,-2.11136 4.28402,-1.83674 5.4857,-1.53267 10.92125,0.10942 16.17187,1.35152 5.41246,1.07928 10.97052,0.16317 15.9174,-1.81929 7.77143,-2.27752 15.563,-4.68259 23.17288,-7.16746 0.26615,-0.14816 2.30542,-1.07218 1.05167,-0.98293 z"
     id="path33500"
     style="fill:#000000;fill-opacity:1;fill-rule:nonzero;stroke:none;display:inline" />
  <path
     d="m 153.79034,314.28897 c -8.40346,1.9383 -16.21777,-5.16851 -24.486,-1.98983 -1.77376,1.0059 -5.18618,2.50794 -6.34767,4.19055 0.81993,1.66177 2.95805,-2.6303 4.28403,-2.28818 5.48569,-1.90938 10.92125,0.13632 16.17186,1.68371 5.41247,1.34455 10.97052,0.20327 15.9174,-2.26646 7.77144,-2.83729 19.00026,-6.13754 26.61014,-9.23316 0.60988,1.94377 -21.99668,7.20097 -32.14976,9.90337 z"
     id="path33509"
     style="fill:#000000;fill-opacity:1;fill-rule:nonzero;stroke:none;display:inline" />
  <path
     d="m 180.87924,298.8801 c -3.33871,0.34805 -3.70203,0.96274 -6.73973,0.18464 -1.697,-0.72059 -3.00612,-1.09805 -3.63685,0.27988 4.77966,1.17885 5.40658,1.98748 10.37658,-0.46452 z"
     id="path33522"
     style="fill:#fff5ff;fill-opacity:1;fill-rule:nonzero;stroke:none;display:inline" />
  <path
     d="m 140.57819,292.59341 c 0.89171,-0.0692 1.32927,0.10446 1.78147,0.76061 0.30695,0.82313 -1.09536,1.95405 -1.38745,2.7322 0.21858,0.63688 1.62714,0.799 1.74306,1.49091 0.0277,0.69078 0.58938,1.17009 0.94765,1.74889 0.1093,0.77205 0.14315,1.50634 0.43263,2.24694 0.17529,0.64484 -0.0476,1.89508 0.36991,2.42696 0.40255,0.67169 1.52864,0.25065 2.31517,0.49389 0.6448,0.12855 1.30811,0.0817 1.95747,0.0584 l -1.88268,1.04808 c -0.67397,0.0101 -1.35954,0.037 -2.01568,-0.12655 -0.79897,-0.27571 -0.47309,-0.85367 -1.74534,-1.3414 -0.43447,-0.55409 -0.006,-1.08727 -0.19301,-1.7542 -0.28686,-0.73585 -1.16054,-3.5066 -1.18066,-4.22192 -0.10949,-0.71083 -1.56671,-1.04464 -1.76675,-1.71515 1.52271,-0.92636 0.64191,-1.47233 0.3764,-2.25465 -0.47452,-0.5562 -0.86028,-0.62509 -1.6873,-0.5441 l 1.93511,-1.04895 z"
     id="path33524"
     style="fill:#ffffff;fill-opacity:1;fill-rule:nonzero;stroke:none" />
  <path
     d="m 107.55981,313.9341 c 0.8917,-0.0553 1.32926,0.0835 1.78146,0.60764 0.30696,0.65759 -1.09535,1.56107 -1.38745,2.18273 0.21858,0.50879 1.62714,0.63831 1.74306,1.19107 0.0278,0.55186 0.58938,0.93477 0.94765,1.39718 0.1093,0.61678 0.14315,1.20339 0.43263,1.79505 0.17529,0.51516 -0.0476,1.51396 0.36991,1.93888 0.40256,0.53661 1.52864,0.20024 2.31517,0.39456 0.64481,0.1027 1.30811,0.0652 1.95748,0.0467 l -1.88269,0.8373 c -0.67397,0.008 -1.35953,0.0295 -2.01567,-0.1011 -0.79898,-0.22026 -0.4731,-0.68198 -1.74534,-1.07163 -0.43448,-0.44266 -0.006,-0.86861 -0.19301,-1.40141 -0.28687,-0.58787 -1.16054,-2.80139 -1.18067,-3.37285 -0.10948,-0.56788 -1.56671,-0.83455 -1.76675,-1.37022 1.52272,-0.74006 0.64191,-1.17624 0.37641,-1.80122 -0.47453,-0.44434 -0.86028,-0.49938 -1.68731,-0.43467 l 1.93512,-0.838 z"
     id="path33527"
     style="fill:#ffffff;fill-opacity:1;fill-rule:nonzero;stroke:none;display:inline" />
</svg>
