<?xml version="1.0" ?><!DOCTYPE svg  PUBLIC '-//W3C//DTD SVG 1.1//EN'  
'http://www.w3.org/Graphics/SVG/1.1/DTD/svg11.dtd' [
	<!ENTITY stroke_color "#010101">
	<!ENTITY fill_color "#FFFFFF">
]>
<svg enable-background="new 0 0 55 55" height="55px" 
version="1.1" 
viewBox="0 0 55 55" 
width="55px" x="0px" 
xml:space="preserve" 
xmlns="http://www.w3.org/2000/svg" 
xmlns:xlink="http://www.w3.org/1999/xlink" y="0px">
<path
   style="fill:none;stroke:&stroke_color;;stroke-width:3"
   d="m 24.252773,2.5427149 -2.40625,3.84375 c -0.938533,-0.1345983 -1.88153,-0.1365662 -2.84375,0 l -2.4375,-3.78125 -3.28125,1.34375 1,4.40625 c -0.764534,0.5756271 -1.437632,1.2230111 -2,1.9687501 l -4.4062496,-0.9687501 -1.375,3.2812501 3.8437496,2.46875 c -0.126275,0.919876 -0.1336,1.839228 0,2.78125 l -3.8437496,2.4375 1.375,3.28125 4.4374996,-0.96875 c 0.580057,0.765124 1.249698,1.438516 2,2 l -1,4.40625 3.28125,1.34375 2.46875,-3.8125 c 0.906145,0.12351 1.821968,0.12902 2.75,0 l 2.46875,3.84375 3.3125,-1.375 -1,-4.4375 c 0.751251,-0.568994 1.382435,-1.23523 1.9375,-1.96875 l 4.4375,0.96875 1.375,-3.28125 -3.84375,-2.40625 c 0.131344,-0.917674 0.158941,-1.871482 0.03125,-2.8125 l 3.8125,-2.46875 -1.375,-3.2812501 -4.40625,1.0000001 c -0.57095,-0.75994 -1.229727,-1.4392211 -1.96875,-2.0000001 l 0.96875,-4.4375 -3.3125,-1.375 z m -3.8125,9.9375001 c 2.209139,0 4,1.790861 4,4 0,2.209139 -1.790861,4 -4,4 -2.209139,0 -4,-1.790861 -4,-4 0,-2.209139 1.790861,-4 4,-4 z"
   id="polygon3379"
   inkscape:connector-curvature="0" />
<path
   inkscape:connector-curvature="0"
   style="fill:none;stroke:&stroke_color;;stroke-width:3"
   d="m 38.939585,24.22672 -2.40625,3.84375 c -0.938533,-0.134598 -1.88153,-0.136566 -2.84375,0 l -2.4375,-3.78125 -3.28125,1.34375 1,4.40625 c -0.764534,0.575627 -1.437632,1.223011 -2,1.96875 l -4.40625,-0.96875 -1.375,3.28125 3.84375,2.46875 c -0.126275,0.919876 -0.1336,1.839228 0,2.78125 l -3.84375,2.4375 1.375,3.28125 4.4375,-0.96875 c 0.580057,0.765124 1.249698,1.438516 2,2 l -1,4.40625 3.28125,1.34375 2.46875,-3.8125 c 0.906145,0.12351 1.821968,0.12902 2.75,0 l 2.46875,3.84375 3.3125,-1.375 -1,-4.4375 c 0.751251,-0.568994 1.382435,-1.23523 1.9375,-1.96875 l 4.4375,0.96875 1.375,-3.28125 -3.84375,-2.40625 c 0.131344,-0.917674 0.158941,-1.871482 0.03125,-2.8125 l 3.8125,-2.46875 -1.375,-3.28125 -4.40625,1 c -0.57095,-0.75994 -1.229727,-1.439221 -1.96875,-2 l 0.96875,-4.4375 -3.3125,-1.375 z m -3.8125,9.9375 c 2.209139,0 4,1.790861 4,4 0,2.209139 -1.790861,4 -4,4 -2.209139,0 -4,-1.790861 -4,-4 0,-2.209139 1.790861,-4 4,-4 z"
   id="polygon3379-9" />
</svg>
