<?xml version="1.0" encoding="UTF-8"?>
<!DOCTYPE svg PUBLIC "-//W3C//DTD SVG 1.1//EN" "http://www.w3.org/Graphics/SVG/1.1/DTD/svg11.dtd" [
  <!ENTITY fill_color "#FFFFFF">
  <!ENTITY stroke_color "#010101">
]>
<svg
   xmlns="http://www.w3.org/2000/svg"
   version="1.1"
   width="55"
   height="55"
   viewBox="0 0 55 55"
   id="svg2"
   xml:space="preserve"><g
   transform="matrix(0.99584859,0.0910252,-0.0910252,0.99584859,2.2424346,-1.4023883)"
   id="g4133"
   style="fill:&fill_color;;fill-opacity:1"><path
     d="M 4.9832215,14.7651 C 3.8091297,22.983351 9.9990939,45.312988 21.59396,47.802013 32.134076,50.064619 45.261369,46.211806 48.909396,34.328859 52.333982,23.17374 46.342875,5.547761 38.204698,3.5067114 34.682033,7.2832144 32.843342,12.307895 19.194631,14.765101 11.912751,16.076073 4.6672551,13.501234 4.9832215,14.7651 z"
     id="path4074"
     style="fill:&fill_color;;fill-opacity:1;stroke:&stroke_color;;stroke-width:3.5;stroke-linecap:round;stroke-linejoin:round;stroke-miterlimit:4;stroke-opacity:1;stroke-dasharray:none" /><path
     d="M 37.961341,14.190736 C 40.796256,11.102689 39.56168,8.8493349 38.814873,8.4520946 M 13.191851,33.22643 c 0,0 6.566588,-10.206546 -0.539117,-14.35923 6.656771,3.674129 24.630143,3.166736 28.327486,-3.620522"
     id="path4093"
     style="fill:&fill_color;;fill-opacity:1;stroke:&stroke_color;;stroke-width:2;stroke-linecap:round;stroke-linejoin:round;stroke-miterlimit:4;stroke-opacity:1;stroke-dasharray:none" /><path
     d="M 30.554963,38.83441 C 29.741459,31.164009 26.768697,27.67301 26.768697,27.67301"
     id="path4096"
     style="fill:&fill_color;;fill-opacity:1;stroke:&stroke_color;;stroke-width:3.5;stroke-linecap:round;stroke-linejoin:miter;stroke-miterlimit:4;stroke-opacity:1;stroke-dasharray:none" /><path
     d="m 42.155489,34.961781 c 0.954168,-7.654176 -1.145734,-11.7303 -1.145734,-11.7303"
     id="path4098"
     style="fill:&fill_color;;fill-opacity:1;stroke:&stroke_color;;stroke-width:3.5;stroke-linecap:round;stroke-linejoin:miter;stroke-miterlimit:4;stroke-opacity:1;stroke-dasharray:none" /></g></svg>